<?xml version="1.0" encoding="UTF-8"?>
<svg width="512px" height="512px" viewBox="0 0 512 512" version="1.1" xmlns="http://www.w3.org/2000/svg" xmlns:xlink="http://www.w3.org/1999/xlink">
    <title>画板备份 13</title>
    <defs>
        <linearGradient x1="50%" y1="0%" x2="50%" y2="100%" id="linearGradient-1">
            <stop stop-color="#FFFFFF" offset="0%"></stop>
            <stop stop-color="#CFCFCF" offset="100%"></stop>
        </linearGradient>
        <path d="M58.88,0 L150.219915,0 L150.219915,0 C252.204864,0 334.88,82.8273213 334.88,185 C334.88,287.172679 252.204864,370 150.219915,370 L58.88,370 C26.8474845,370 0.88,344.032515 0.88,312 L0.88,58 C0.88,25.9674845 26.8474845,-8.32657708e-15 58.88,0 Z" id="path-2"></path>
        <filter x="-5.4%" y="-4.9%" width="110.8%" height="109.7%" filterUnits="objectBoundingBox" id="filter-4">
            <feMorphology radius="2" operator="dilate" in="SourceAlpha" result="shadowSpreadOuter1"></feMorphology>
            <feOffset dx="0" dy="0" in="shadowSpreadOuter1" result="shadowOffsetOuter1"></feOffset>
            <feGaussianBlur stdDeviation="4" in="shadowOffsetOuter1" result="shadowBlurOuter1"></feGaussianBlur>
            <feColorMatrix values="0 0 0 0 0.49783679   0 0 0 0 0.49783679   0 0 0 0 0.49783679  0 0 0 0.3 0" type="matrix" in="shadowBlurOuter1"></feColorMatrix>
        </filter>
    </defs>
    <g id="画板备份-13" stroke="none" stroke-width="1" fill="none" fill-rule="evenodd">
        <rect id="Rectangle-2-Copy" fill="url(#linearGradient-1)" x="0" y="0" width="512" height="512" rx="100"></rect>
        <g id="Path-29-Copy-+-Path-29-Copy备份-+-Path-30-蒙版" transform="translate(88.120000, 71.000000)">
            <mask id="mask-3" fill="white">
                <use xlink:href="#path-2"></use>
            </mask>
            <g id="蒙版">
                <use fill="black" fill-opacity="1" filter="url(#filter-4)" xlink:href="#path-2"></use>
                <use fill="#5AE1F9" fill-rule="evenodd" xlink:href="#path-2"></use>
            </g>
            <circle id="椭圆形备份-2" fill="#4FD4EB" mask="url(#mask-3)" cx="280" cy="221" r="280"></circle>
            <circle id="椭圆形备份" fill="#35C4DC" mask="url(#mask-3)" cx="240" cy="261" r="240"></circle>
            <circle id="椭圆形" fill="#06B6D4" mask="url(#mask-3)" cx="200" cy="301" r="200"></circle>
        </g>
    </g>
</svg>